<?xml version="1.0" encoding="UTF-8" standalone="no"?>
<!-- Created with Inkscape (http://www.inkscape.org/) -->

<svg
   width="170mm"
   height="170mm"
   viewBox="0 0 170 170"
   version="1.1"
   id="svg5"
   xml:space="preserve"
   inkscape:version="1.2.2 (b0a8486541, 2022-12-01)"
   sodipodi:docname="icon.svg"
   xmlns:inkscape="http://www.inkscape.org/namespaces/inkscape"
   xmlns:sodipodi="http://sodipodi.sourceforge.net/DTD/sodipodi-0.dtd"
   xmlns="http://www.w3.org/2000/svg"
   xmlns:svg="http://www.w3.org/2000/svg"><sodipodi:namedview
     id="namedview7"
     pagecolor="#ffffff"
     bordercolor="#111111"
     borderopacity="1"
     inkscape:showpageshadow="0"
     inkscape:pageopacity="0"
     inkscape:pagecheckerboard="1"
     inkscape:deskcolor="#d1d1d1"
     inkscape:document-units="mm"
     showgrid="false"
     inkscape:zoom="0.75419606"
     inkscape:cx="288.38655"
     inkscape:cy="330.81583"
     inkscape:window-width="1440"
     inkscape:window-height="868"
     inkscape:window-x="0"
     inkscape:window-y="0"
     inkscape:window-maximized="1"
     inkscape:current-layer="layer1" /><defs
     id="defs2" /><g
     inkscape:label="Camada 1"
     inkscape:groupmode="layer"
     id="layer1"><rect
       style="fill:#8fdaaf;fill-opacity:1;stroke-width:0.257349"
       id="rect231"
       width="140"
       height="132.44911"
       x="15"
       y="15.032812"
       ry="27.679419" /><path
       style="fill:#bbe8a7;fill-opacity:1;stroke:#03442c;stroke-width:4.08599;stroke-dasharray:none;stroke-opacity:1"
       d="m 56.089164,37.856194 c 4e-5,-22.643208 16.33472,-35.556785 37.93544,-35.441077 21.307106,0.671697 30.389346,12.424066 32.907206,25.445449 l 1.9e-4,59.666872 C 123.53143,128.80873 92.482374,133.84448 56.089004,130.14535 Z"
       id="path12302"
       sodipodi:nodetypes="sccccs" /><path
       style="fill:#6dd07e;fill-opacity:1;stroke:#03442c;stroke-width:4.08599;stroke-dasharray:none;stroke-opacity:1"
       d="m 50.056354,118.54836 c 0,0 -31.43133,30.42957 -31.11063,35.96026 -1.46195,10.38807 7.99884,15.78291 14.31887,9.18249 l 13.50236,-16.31214 z"
       id="path32598"
       sodipodi:nodetypes="ccccc" /><path
       style="fill:#6dd07e;fill-opacity:1;stroke:#03442c;stroke-width:4.086;stroke-linecap:round;stroke-dasharray:none;stroke-opacity:1"
       d="M 55.485384,145.47449 H 111.50328"
       id="path32600"
       sodipodi:nodetypes="cc" /><path
       style="fill:#6dd07e;fill-opacity:1;stroke:#03442c;stroke-width:4.08599;stroke-dasharray:none;stroke-opacity:1"
       d="m 42.345814,127.1205 14.94269,-16.34385 c 0,0 1.40487,44.60186 -1.18291,51.24034 -5.35928,6.72276 -10.8945,7.99155 -16.71923,0.28498 -1.67571,-4.00017 2.95945,-35.18147 2.95945,-35.18147 z"
       id="path32596"
       sodipodi:nodetypes="ccccc" /><g
       id="g31868"
       transform="rotate(-45.926918,2.3146635,464.5346)"><path
         style="fill:#6dd07e;fill-opacity:1;stroke:#03442c;stroke-width:4.08599;stroke-dasharray:none;stroke-opacity:1"
         d="m 281.08509,275.21488 c 8.01315,1.78716 57.22192,0 57.22192,0 l -11.15838,-19.2363 -11.15837,-19.2363 c 0,0 -27.61937,-1.58418 -35.42065,0 -10.28494,5.9658 -10.5147,19.60858 -10.5147,19.60858 0.21052,7.07397 4.67702,15.88124 11.03018,18.86402 z"
         id="path31860"
         sodipodi:nodetypes="ccccccc" /><path
         style="fill:#6dd07e;fill-opacity:1;stroke:#03442c;stroke-width:4.08599;stroke-dasharray:none;stroke-opacity:1"
         d="m 270.20589,256.2459 56.75496,-0.25592"
         id="path31864"
         sodipodi:nodetypes="cc" /></g><circle
       style="fill:#c3ecac;fill-opacity:1;stroke:#03442c;stroke-width:4.086;stroke-dasharray:none;stroke-opacity:1"
       id="path6616"
       cx="81.624794"
       cy="75.279556"
       r="24.727772" /><circle
       style="fill:#03442c;fill-opacity:1;stroke:none;stroke-width:8.3101;stroke-dasharray:none;stroke-opacity:1"
       id="path6618"
       cx="107.01982"
       cy="32.592937"
       r="7.4868093" /><path
       style="fill:#03442c;fill-opacity:1;stroke:#03442c;stroke-width:4.08599;stroke-dasharray:none;stroke-opacity:1"
       d="m 128.64199,28.814598 c 6.23277,-0.09495 15.22447,2.146029 10.6043,19.249792 -6.84473,-0.391511 -7.53535,4.372251 -10.6043,5.587905 z"
       id="path12353"
       sodipodi:nodetypes="cccc" /><path
       style="fill:#6dd07e;fill-opacity:1;stroke:#03442c;stroke-width:4.08599;stroke-dasharray:none;stroke-opacity:1"
       d="M 87.622004,145.44733 V 130.40132"
       id="path32602"
       sodipodi:nodetypes="cc" /><path
       style="fill:#6dd07e;fill-opacity:1;stroke:none;stroke-width:2.04111;stroke-dasharray:none;stroke-opacity:1"
       d="m 59.695214,142.31952 c 0,-0.60612 0.03897,-2.52884 0.0866,-4.27271 l 0.08662,-3.17067 0.585417,-0.17285 c 0.599387,-0.17698 1.599776,-0.79923 2.401226,-1.4936 0.399785,-0.34636 0.518583,-0.38165 1.057354,-0.31407 2.858373,0.35854 13.822468,0.41543 17.788973,0.0923 0.79965,-0.0651 1.97429,-0.16118 2.61035,-0.21343 l 1.1565,-0.095 v 5.37103 5.37104 H 72.581719 59.695214 Z"
       id="path32744" /><path
       style="fill:#ffffff;fill-opacity:1;stroke:none;stroke-width:4.08599;stroke-dasharray:none;stroke-opacity:1"
       d="m 125.07818,60.888473 c 0.13969,-1.572565 -1.63026,-4.680463 -4.19657,-5.968983 -4.47706,-0.737659 -8.45584,3.898167 -7.50714,8.062148 1.85964,10.26802 11.82604,18.62632 11.55408,25.09715 z"
       id="path32800"
       sodipodi:nodetypes="ccccc" /></g></svg>
